<?xml version="1.0" encoding="utf-8" standalone="yes"?>
<!DOCTYPE svg PUBLIC "-//W3C//DTD SVG 1.1//EN" "http://www.w3.org/Graphics/SVG/1.1/DTD/svg11.dtd">
<svg version="1.1" xmlns="http://www.w3.org/2000/svg" xmlns:xlink="http://www.w3.org/1999/xlink" width="836" height="774" viewBox="0 0 836 774" style="fill:none; stroke:none; fill-rule:evenodd; clip-rule:evenodd; stroke-linecap:round; stroke-linejoin:round; stroke-miterlimit:1.5;">
<style class="text-font-style fontImports" data-font-family="Roboto">
@import url(https://fonts.googleapis.com/css2?family=Roboto:wght@400;700&amp;display=block);
</style>
<style class="text-font-style">
@import url(https://app.napkin.ai/fonts/font-face.web.napkin-fallback.css);
@import url(https://app.napkin.ai/fonts/font-face.web.shantell-sans.css);
@import url(https://app.napkin.ai/fonts/font-face.web.roboto.css);
</style>
<rect id="" x="0" y="0" width="835.266" height="774" style="fill:#ffffff;"></rect>
<g id="items" style="isolation:isolate;">
<g id="blend" style="mix-blend-mode:normal;">
<g id="g-root-tf_4mb3sy9sezgt-fill" data-item-order="-962088" transform="translate(6.59375, 0.0)">
<g id="tf_4mb3sy9sezgt-fill-merged" stroke="none" fill="#ffffff" fill-opacity="1.0">
<g>
<path d="M0 0 H828.67 V774 H0 V0"></path>
</g>
</g>
</g>
<g id="g-root-tf_4mb3sy9sezgt-stroke" data-item-order="-962088" transform="translate(6.59375, 0.0)"></g>
<g id="g-root-cp_1_g-1_hz0kci9s543o-fill" data-item-order="-616882" transform="translate(369.0, 116.0)">
<g id="cp_1_g-1_hz0kci9s543o-fill-merged" stroke="none" fill="url(#gradient-76aaff-336274919)" fill-opacity="1.0">
<g>
<path d="M52 94C75.196 94 94 75.196 94 52C94 28.804 75.196 10 52 10C28.804 10 10 28.804 10 52C10 75.196 28.804 94 52 94 M52 78.25C66.497 78.25 78.25 66.497 78.25 52C78.25 37.502 66.497 25.75 52 25.75C37.502 25.75 25.75 37.502 25.75 52C25.75 66.497 37.502 78.25 52 78.25"></path>
</g>
</g>
</g>
<g id="g-root-cp_1_g-1_hz0kci9s543o-stroke" data-item-order="-616882" transform="translate(369.0, 116.0)">
<g id="cp_1_g-1_hz0kci9s543o-stroke" fill="none" stroke-linecap="round" stroke-linejoin="round" stroke-miterlimit="4" stroke="#484848" stroke-width="2" stroke-opacity="1.0">
<g>
<path d="M 52 94C 75.196 94 94 75.196 94 52C 94 28.804 75.196 10 52 10C 28.804 10 10 28.804 10 52C 10 75.196 28.804 94 52 94ZM 52 78.25C 66.4975 78.25 78.25 66.4975 78.25 52C 78.25 37.5025 66.4975 25.75 52 25.75C 37.5025 25.75 25.75 37.5025 25.75 52C 25.75 66.4975 37.5025 78.25 52 78.25Z"></path>
</g>
</g>
</g>
<g id="g-root-sy_1_Subtract_zqakua9s54aw-fill" data-item-order="-616875" transform="translate(453.0, 158.0)"></g>
<g id="g-root-sy_1_Subtract_zqakua9s54aw-stroke" data-item-order="-616875" transform="translate(453.0, 158.0)">
<g id="sy_1_Subtract_zqakua9s54aw-stroke" fill="none" stroke-linecap="round" stroke-linejoin="round" stroke-miterlimit="4" stroke="#484848" stroke-width="2" stroke-opacity="1.0">
<g>
<path d="M 49.375 10L 10 10"></path>
</g>
</g>
</g>
<g id="g-root-sy_1_Subtract-start_hz0kci9s54hz-fill" data-item-order="-616873" transform="translate(492.375, 155.375)"></g>
<g id="g-root-sy_1_Subtract-start_hz0kci9s54hz-stroke" data-item-order="-616873" transform="translate(492.375, 155.375)">
<g id="sy_1_Subtract-start_hz0kci9s54hz-stroke" fill="none" stroke-linecap="round" stroke-linejoin="round" stroke-miterlimit="4" stroke="#484848" stroke-width="2" stroke-opacity="1.0">
<g>
<path d="M 12.625 10C 14.0738 10 15.25 11.1762 15.25 12.625C 15.25 14.0738 14.0738 15.25 12.625 15.25C 11.1762 15.25 10 14.0738 10 12.625C 10 11.1762 11.1762 10 12.625 10Z"></path>
</g>
</g>
</g>
<g id="g-root-sy_1_Subtract_1_7qjuq9s54p7-fill" data-item-order="-616869" transform="translate(330.0, 158.0)"></g>
<g id="g-root-sy_1_Subtract_1_7qjuq9s54p7-stroke" data-item-order="-616869" transform="translate(330.0, 158.0)">
<g id="sy_1_Subtract_1_7qjuq9s54p7-stroke" fill="none" stroke-linecap="round" stroke-linejoin="round" stroke-miterlimit="4" stroke="#484848" stroke-width="2" stroke-opacity="1.0">
<g>
<path d="M 10 10L 49 10"></path>
</g>
</g>
</g>
<g id="g-root-sy_1_Subtract-start_1_1d1r37m9s54p7-fill" data-item-order="-616867" transform="translate(324.0, 155.0)"></g>
<g id="g-root-sy_1_Subtract-start_1_1d1r37m9s54p7-stroke" data-item-order="-616867" transform="translate(324.0, 155.0)">
<g id="sy_1_Subtract-start_1_1d1r37m9s54p7-stroke" fill="none" stroke-linecap="round" stroke-linejoin="round" stroke-miterlimit="4" stroke="#484848" stroke-width="2" stroke-opacity="1.0">
<g>
<path d="M 13 10C 11.3443 10 10 11.3443 10 13C 10 14.6557 11.3443 16 13 16C 14.6557 16 16 14.6557 16 13C 16 11.3443 14.6557 10 13 10Z"></path>
</g>
</g>
</g>
<g id="g-root-cp_1_lines_zqakua9s5534-fill" data-item-order="-616854" transform="translate(403.0, 199.25)">
<g id="cp_1_lines_zqakua9s5534-fill-merged" stroke="none" fill="url(#gradient-76aaff-336274919)" fill-opacity="1.0">
<g>
<path d="M10 47.5C12.591 46.983 15.266 46.713 18 46.713C20.734 46.713 23.409 46.983 26 47.5 V10C23.409 10.517 20.734 10.787 18 10.787C15.266 10.787 12.591 10.517 10 10 V47.5"></path>
</g>
</g>
</g>
<g id="g-root-cp_1_lines_zqakua9s5534-stroke" data-item-order="-616854" transform="translate(403.0, 199.25)">
<g id="cp_1_lines_zqakua9s5534-stroke" fill="none" stroke-linecap="round" stroke-linejoin="round" stroke-miterlimit="4" stroke="#484848" stroke-width="2" stroke-opacity="1.0">
<g>
<path d="M 10 16L 10 10C 12.5913 10.5167 15.2656 10.7871 18 10.7871C 20.7344 10.7871 23.4087 10.5167 26 10.000001L 26 16M 26 41.5L 26 47.5C 23.4087 46.9833 20.7344 46.7129 18 46.7129C 15.2656 46.7129 12.5913 46.9833 10 47.5L 10 41.5M 26 41.5L 26 16M 10 16L 10 41.5"></path>
</g>
</g>
</g>
<g id="g-root-cp_2_g-2_93dk3m9s55hj-fill" data-item-order="-616824" transform="translate(369.0, 236.0)">
<g id="cp_2_g-2_93dk3m9s55hj-fill-merged" stroke="none" fill="url(#gradient-4dd3ff-403310036)" fill-opacity="1.0">
<g>
<path d="M52 94C75.196 94 94 75.196 94 52C94 28.804 75.196 10 52 10C28.804 10 10 28.804 10 52C10 75.196 28.804 94 52 94 M52 78.25C66.497 78.25 78.25 66.497 78.25 52C78.25 37.502 66.497 25.75 52 25.75C37.502 25.75 25.75 37.502 25.75 52C25.75 66.497 37.502 78.25 52 78.25"></path>
</g>
</g>
</g>
<g id="g-root-cp_2_g-2_93dk3m9s55hj-stroke" data-item-order="-616824" transform="translate(369.0, 236.0)">
<g id="cp_2_g-2_93dk3m9s55hj-stroke" fill="none" stroke-linecap="round" stroke-linejoin="round" stroke-miterlimit="4" stroke="#484848" stroke-width="2" stroke-opacity="1.0">
<g>
<path d="M 52 94C 75.196 94 94 75.196 94 52C 94 28.804 75.196 10 52 10C 28.804 10 10 28.804 10 52C 10 75.196 28.804 94 52 94ZM 52 78.25C 66.4975 78.25 78.25 66.4975 78.25 52C 78.25 37.5025 66.4975 25.75 52 25.75C 37.5025 25.75 25.75 37.5025 25.75 52C 25.75 66.4975 37.5025 78.25 52 78.25Z"></path>
</g>
</g>
</g>
<g id="g-root-sy_2_Subtract_4nk1z69s55ou-fill" data-item-order="-616817" transform="translate(453.0, 278.0)"></g>
<g id="g-root-sy_2_Subtract_4nk1z69s55ou-stroke" data-item-order="-616817" transform="translate(453.0, 278.0)">
<g id="sy_2_Subtract_4nk1z69s55ou-stroke" fill="none" stroke-linecap="round" stroke-linejoin="round" stroke-miterlimit="4" stroke="#484848" stroke-width="2" stroke-opacity="1.0">
<g>
<path d="M 49.375 10L 10 10"></path>
</g>
</g>
</g>
<g id="g-root-sy_2_Subtract-start_1lxe3gi9s55oj-fill" data-item-order="-616815" transform="translate(492.375, 275.375)"></g>
<g id="g-root-sy_2_Subtract-start_1lxe3gi9s55oj-stroke" data-item-order="-616815" transform="translate(492.375, 275.375)">
<g id="sy_2_Subtract-start_1lxe3gi9s55oj-stroke" fill="none" stroke-linecap="round" stroke-linejoin="round" stroke-miterlimit="4" stroke="#484848" stroke-width="2" stroke-opacity="1.0">
<g>
<path d="M 12.625 10C 14.0738 10 15.25 11.1762 15.25 12.625C 15.25 14.0738 14.0738 15.25 12.625 15.25C 11.1762 15.25 10 14.0738 10 12.625C 10 11.1762 11.1762 10 12.625 10Z"></path>
</g>
</g>
</g>
<g id="g-root-sy_2_Subtract_1_14642yq9s55vn-fill" data-item-order="-616811" transform="translate(330.0, 278.0)"></g>
<g id="g-root-sy_2_Subtract_1_14642yq9s55vn-stroke" data-item-order="-616811" transform="translate(330.0, 278.0)">
<g id="sy_2_Subtract_1_14642yq9s55vn-stroke" fill="none" stroke-linecap="round" stroke-linejoin="round" stroke-miterlimit="4" stroke="#484848" stroke-width="2" stroke-opacity="1.0">
<g>
<path d="M 10 10L 49 10"></path>
</g>
</g>
</g>
<g id="g-root-sy_2_Subtract-start_1_dj72829s5631-fill" data-item-order="-616809" transform="translate(324.0, 275.0)"></g>
<g id="g-root-sy_2_Subtract-start_1_dj72829s5631-stroke" data-item-order="-616809" transform="translate(324.0, 275.0)">
<g id="sy_2_Subtract-start_1_dj72829s5631-stroke" fill="none" stroke-linecap="round" stroke-linejoin="round" stroke-miterlimit="4" stroke="#484848" stroke-width="2" stroke-opacity="1.0">
<g>
<path d="M 13 10C 11.3443 10 10 11.3443 10 13C 10 14.6557 11.3443 16 13 16C 14.6557 16 16 14.6557 16 13C 16 11.3443 14.6557 10 13 10Z"></path>
</g>
</g>
</g>
<g id="g-root-cp_2_lines_1_1lxe3gi9s56a2-fill" data-item-order="-616802" transform="translate(403.0, 319.25)">
<g id="cp_2_lines_1_1lxe3gi9s56a2-fill-merged" stroke="none" fill="url(#gradient-4dd3ff-403310036)" fill-opacity="1.0">
<g>
<path d="M10 65.5C12.591 64.983 15.266 64.713 18 64.713C20.734 64.713 23.409 64.983 26 65.5 V10C23.409 10.517 20.734 10.787 18 10.787C15.266 10.787 12.591 10.517 10 10 V65.5"></path>
</g>
</g>
</g>
<g id="g-root-cp_2_lines_1_1lxe3gi9s56a2-stroke" data-item-order="-616802" transform="translate(403.0, 319.25)">
<g id="cp_2_lines_1_1lxe3gi9s56a2-stroke" fill="none" stroke-linecap="round" stroke-linejoin="round" stroke-miterlimit="4" stroke="#484848" stroke-width="2" stroke-opacity="1.0">
<g>
<path d="M 10 16L 10 10C 12.5913 10.5167 15.2656 10.7871 18 10.7871C 20.7344 10.7871 23.4087 10.5167 26 10.000001L 26 16M 26 59.5L 26 65.5C 23.4087 64.9833 20.7344 64.7129 18 64.7129C 15.2656 64.7129 12.5913 64.9833 10 65.5L 10 59.5M 26 59.5L 26 16M 10 16L 10 59.5"></path>
</g>
</g>
</g>
<g id="g-root-cp_3_g-3_4o6j2a9s53il-fill" data-item-order="-616780" transform="translate(369.0, 374.0)">
<g id="cp_3_g-3_4o6j2a9s53il-fill-merged" stroke="none" fill="url(#gradient-64edab-300750244)" fill-opacity="1.0">
<g>
<path d="M52 94C75.196 94 94 75.196 94 52C94 28.804 75.196 10 52 10C28.804 10 10 28.804 10 52C10 75.196 28.804 94 52 94 M52 78.25C66.497 78.25 78.25 66.497 78.25 52C78.25 37.502 66.497 25.75 52 25.75C37.502 25.75 25.75 37.502 25.75 52C25.75 66.497 37.502 78.25 52 78.25"></path>
</g>
</g>
</g>
<g id="g-root-cp_3_g-3_4o6j2a9s53il-stroke" data-item-order="-616780" transform="translate(369.0, 374.0)">
<g id="cp_3_g-3_4o6j2a9s53il-stroke" fill="none" stroke-linecap="round" stroke-linejoin="round" stroke-miterlimit="4" stroke="#484848" stroke-width="2" stroke-opacity="1.0">
<g>
<path d="M 52 94C 75.196 94 94 75.196 94 52C 94 28.804 75.196 10 52 10C 28.804 10 10 28.804 10 52C 10 75.196 28.804 94 52 94ZM 52 78.25C 66.4975 78.25 78.25 66.4975 78.25 52C 78.25 37.5025 66.4975 25.75 52 25.75C 37.5025 25.75 25.75 37.5025 25.75 52C 25.75 66.4975 37.5025 78.25 52 78.25Z"></path>
</g>
</g>
</g>
<g id="g-root-sy_3_Subtract_8d0xu9s53ph-fill" data-item-order="-616773" transform="translate(453.0, 416.0)"></g>
<g id="g-root-sy_3_Subtract_8d0xu9s53ph-stroke" data-item-order="-616773" transform="translate(453.0, 416.0)">
<g id="sy_3_Subtract_8d0xu9s53ph-stroke" fill="none" stroke-linecap="round" stroke-linejoin="round" stroke-miterlimit="4" stroke="#484848" stroke-width="2" stroke-opacity="1.0">
<g>
<path d="M 49.375 10L 10 10"></path>
</g>
</g>
</g>
<g id="g-root-sy_3_Subtract-start_1d2dkaq9s53pe-fill" data-item-order="-616771" transform="translate(492.375, 413.375)"></g>
<g id="g-root-sy_3_Subtract-start_1d2dkaq9s53pe-stroke" data-item-order="-616771" transform="translate(492.375, 413.375)">
<g id="sy_3_Subtract-start_1d2dkaq9s53pe-stroke" fill="none" stroke-linecap="round" stroke-linejoin="round" stroke-miterlimit="4" stroke="#484848" stroke-width="2" stroke-opacity="1.0">
<g>
<path d="M 12.625 10C 14.0738 10 15.25 11.1762 15.25 12.625C 15.25 14.0738 14.0738 15.25 12.625 15.25C 11.1762 15.25 10 14.0738 10 12.625C 10 11.1762 11.1762 10 12.625 10Z"></path>
</g>
</g>
</g>
<g id="g-root-sy_3_Subtract_1_vb3jsy9s53wi-fill" data-item-order="-616767" transform="translate(330.0, 416.0)"></g>
<g id="g-root-sy_3_Subtract_1_vb3jsy9s53wi-stroke" data-item-order="-616767" transform="translate(330.0, 416.0)">
<g id="sy_3_Subtract_1_vb3jsy9s53wi-stroke" fill="none" stroke-linecap="round" stroke-linejoin="round" stroke-miterlimit="4" stroke="#484848" stroke-width="2" stroke-opacity="1.0">
<g>
<path d="M 10 10L 49 10"></path>
</g>
</g>
</g>
<g id="g-root-sy_3_Subtract-start_1_4o6j2a9s543w-fill" data-item-order="-616765" transform="translate(324.0, 413.0)"></g>
<g id="g-root-sy_3_Subtract-start_1_4o6j2a9s543w-stroke" data-item-order="-616765" transform="translate(324.0, 413.0)">
<g id="sy_3_Subtract-start_1_4o6j2a9s543w-stroke" fill="none" stroke-linecap="round" stroke-linejoin="round" stroke-miterlimit="4" stroke="#484848" stroke-width="2" stroke-opacity="1.0">
<g>
<path d="M 13 10C 11.3443 10 10 11.3443 10 13C 10 14.6557 11.3443 16 13 16C 14.6557 16 16 14.6557 16 13C 16 11.3443 14.6557 10 13 10Z"></path>
</g>
</g>
</g>
<g id="g-root-cp_3_lines_2_1ly0kjm9s54aw-fill" data-item-order="-616752" transform="translate(403.0, 457.25)">
<g id="cp_3_lines_2_1ly0kjm9s54aw-fill-merged" stroke="none" fill="url(#gradient-64edab-300750244)" fill-opacity="1.0">
<g>
<path d="M10 47.5C12.591 46.983 15.266 46.713 18 46.713C20.734 46.713 23.409 46.983 26 47.5 V10C23.409 10.517 20.734 10.787 18 10.787C15.266 10.787 12.591 10.517 10 10 V47.5"></path>
</g>
</g>
</g>
<g id="g-root-cp_3_lines_2_1ly0kjm9s54aw-stroke" data-item-order="-616752" transform="translate(403.0, 457.25)">
<g id="cp_3_lines_2_1ly0kjm9s54aw-stroke" fill="none" stroke-linecap="round" stroke-linejoin="round" stroke-miterlimit="4" stroke="#484848" stroke-width="2" stroke-opacity="1.0">
<g>
<path d="M 10 16L 10 10C 12.5913 10.5167 15.2656 10.7871 18 10.7871C 20.7344 10.7871 23.4087 10.5167 26 10.000001L 26 16M 26 41.5L 26 47.5C 23.4087 46.9833 20.7344 46.7129 18 46.7129C 15.2656 46.7129 12.5913 46.9833 10 47.5L 10 41.5M 26 41.5L 26 16M 10 16L 10 41.5"></path>
</g>
</g>
</g>
<g id="g-root-cp_4_g-4_mfgjk29s54p3-fill" data-item-order="-616724" transform="translate(369.0, 494.0)">
<g id="cp_4_g-4_mfgjk29s54p3-fill-merged" stroke="none" fill="url(#gradient-bceb57-510249182)" fill-opacity="1.0">
<g>
<path d="M52 94C75.196 94 94 75.196 94 52C94 28.804 75.196 10 52 10C28.804 10 10 28.804 10 52C10 75.196 28.804 94 52 94 M52 78.25C66.497 78.25 78.25 66.497 78.25 52C78.25 37.502 66.497 25.75 52 25.75C37.502 25.75 25.75 37.502 25.75 52C25.75 66.497 37.502 78.25 52 78.25"></path>
</g>
</g>
</g>
<g id="g-root-cp_4_g-4_mfgjk29s54p3-stroke" data-item-order="-616724" transform="translate(369.0, 494.0)">
<g id="cp_4_g-4_mfgjk29s54p3-stroke" fill="none" stroke-linecap="round" stroke-linejoin="round" stroke-miterlimit="4" stroke="#484848" stroke-width="2" stroke-opacity="1.0">
<g>
<path d="M 52 94C 75.196 94 94 75.196 94 52C 94 28.804 75.196 10 52 10C 28.804 10 10 28.804 10 52C 10 75.196 28.804 94 52 94ZM 52 78.25C 66.4975 78.25 78.25 66.4975 78.25 52C 78.25 37.5025 66.4975 25.75 52 25.75C 37.5025 25.75 25.75 37.5025 25.75 52C 25.75 66.4975 37.5025 78.25 52 78.25Z"></path>
</g>
</g>
</g>
<g id="g-root-sy_4_Subtract_hzn1fm9s54w3-fill" data-item-order="-616717" transform="translate(453.0, 536.0)"></g>
<g id="g-root-sy_4_Subtract_hzn1fm9s54w3-stroke" data-item-order="-616717" transform="translate(453.0, 536.0)">
<g id="sy_4_Subtract_hzn1fm9s54w3-stroke" fill="none" stroke-linecap="round" stroke-linejoin="round" stroke-miterlimit="4" stroke="#484848" stroke-width="2" stroke-opacity="1.0">
<g>
<path d="M 49.375 10L 10 10"></path>
</g>
</g>
</g>
<g id="g-root-sy_4_Subtract-start_1utnksi9s54w3-fill" data-item-order="-616715" transform="translate(492.375, 533.375)"></g>
<g id="g-root-sy_4_Subtract-start_1utnksi9s54w3-stroke" data-item-order="-616715" transform="translate(492.375, 533.375)">
<g id="sy_4_Subtract-start_1utnksi9s54w3-stroke" fill="none" stroke-linecap="round" stroke-linejoin="round" stroke-miterlimit="4" stroke="#484848" stroke-width="2" stroke-opacity="1.0">
<g>
<path d="M 12.625 10C 14.0738 10 15.25 11.1762 15.25 12.625C 15.25 14.0738 14.0738 15.25 12.625 15.25C 11.1762 15.25 10 14.0738 10 12.625C 10 11.1762 11.1762 10 12.625 10Z"></path>
</g>
</g>
</g>
<g id="g-root-sy_4_Subtract_1_18mk26a9s553c-fill" data-item-order="-616711" transform="translate(330.0, 536.0)"></g>
<g id="g-root-sy_4_Subtract_1_18mk26a9s553c-stroke" data-item-order="-616711" transform="translate(330.0, 536.0)">
<g id="sy_4_Subtract_1_18mk26a9s553c-stroke" fill="none" stroke-linecap="round" stroke-linejoin="round" stroke-miterlimit="4" stroke="#484848" stroke-width="2" stroke-opacity="1.0">
<g>
<path d="M 10 10L 49 10"></path>
</g>
</g>
</g>
<g id="g-root-sy_4_Subtract-start_1_hzn1fm9s55am-fill" data-item-order="-616709" transform="translate(324.0, 533.0)"></g>
<g id="g-root-sy_4_Subtract-start_1_hzn1fm9s55am-stroke" data-item-order="-616709" transform="translate(324.0, 533.0)">
<g id="sy_4_Subtract-start_1_hzn1fm9s55am-stroke" fill="none" stroke-linecap="round" stroke-linejoin="round" stroke-miterlimit="4" stroke="#484848" stroke-width="2" stroke-opacity="1.0">
<g>
<path d="M 13 10C 11.3443 10 10 11.3443 10 13C 10 14.6557 11.3443 16 13 16C 14.6557 16 16 14.6557 16 13C 16 11.3443 14.6557 10 13 10Z"></path>
</g>
</g>
</g>
<g id="g-root-cp_4_lines_3_1ly0kjm9s55hh-fill" data-item-order="-616702" transform="translate(403.0, 577.25)">
<g id="cp_4_lines_3_1ly0kjm9s55hh-fill-merged" stroke="none" fill="url(#gradient-bceb57-510249182)" fill-opacity="1.0">
<g>
<path d="M10 47.5C12.591 46.983 15.266 46.713 18 46.713C20.734 46.713 23.409 46.983 26 47.5 V10C23.409 10.517 20.734 10.787 18 10.787C15.266 10.787 12.591 10.517 10 10 V47.5"></path>
</g>
</g>
</g>
<g id="g-root-cp_4_lines_3_1ly0kjm9s55hh-stroke" data-item-order="-616702" transform="translate(403.0, 577.25)">
<g id="cp_4_lines_3_1ly0kjm9s55hh-stroke" fill="none" stroke-linecap="round" stroke-linejoin="round" stroke-miterlimit="4" stroke="#484848" stroke-width="2" stroke-opacity="1.0">
<g>
<path d="M 10 16L 10 10C 12.5913 10.5167 15.2656 10.7871 18 10.7871C 20.7344 10.7871 23.4087 10.5167 26 10.000001L 26 16M 26 41.5L 26 47.5C 23.4087 46.9833 20.7344 46.7129 18 46.7129C 15.2656 46.7129 12.5913 46.9833 10 47.5L 10 41.5M 26 41.5L 26 16M 10 16L 10 41.5"></path>
</g>
</g>
</g>
<g id="g-root-cp_5_g-5_4o6j2a9s55vo-fill" data-item-order="-616680" transform="translate(369.0, 614.0)">
<defs>
<linearGradient id="gradient-76aaff-336274919" x2="0" y2="1">
<stop offset="0" stop-color="#9cc2ff"></stop>
<stop offset="1" stop-color="#4f92ff"></stop>
</linearGradient>
<linearGradient id="gradient-4dd3ff-403310036" x2="0" y2="1">
<stop offset="0" stop-color="#7fdfff"></stop>
<stop offset="1" stop-color="#1ac6ff"></stop>
</linearGradient>
<linearGradient id="gradient-64edab-300750244" x2="0" y2="1">
<stop offset="0" stop-color="#83fac1"></stop>
<stop offset="1" stop-color="#44e095"></stop>
</linearGradient>
<linearGradient id="gradient-bceb57-510249182" x2="0" y2="1">
<stop offset="0" stop-color="#cff976"></stop>
<stop offset="1" stop-color="#a8dd38"></stop>
</linearGradient>
<linearGradient id="gradient-ffeb37-9997561" x2="0" y2="1">
<stop offset="0" stop-color="#ffef63"></stop>
<stop offset="1" stop-color="#ffe60a"></stop>
</linearGradient>
</defs>
<g id="cp_5_g-5_4o6j2a9s55vo-fill-merged" stroke="none" fill="url(#gradient-ffeb37-9997561)" fill-opacity="1.0">
<g>
<path d="M52 94C75.196 94 94 75.196 94 52C94 28.804 75.196 10 52 10C28.804 10 10 28.804 10 52C10 75.196 28.804 94 52 94 M52 78.25C66.497 78.25 78.25 66.497 78.25 52C78.25 37.502 66.497 25.75 52 25.75C37.502 25.75 25.75 37.502 25.75 52C25.75 66.497 37.502 78.25 52 78.25"></path>
</g>
</g>
</g>
<g id="g-root-cp_5_g-5_4o6j2a9s55vo-stroke" data-item-order="-616680" transform="translate(369.0, 614.0)">
<g id="cp_5_g-5_4o6j2a9s55vo-stroke" fill="none" stroke-linecap="round" stroke-linejoin="round" stroke-miterlimit="4" stroke="#484848" stroke-width="2" stroke-opacity="1.0">
<g>
<path d="M 52 94C 75.196 94 94 75.196 94 52C 94 28.804 75.196 10 52 10C 28.804 10 10 28.804 10 52C 10 75.196 28.804 94 52 94ZM 52 78.25C 66.4975 78.25 78.25 66.4975 78.25 52C 78.25 37.5025 66.4975 25.75 52 25.75C 37.5025 25.75 25.75 37.5025 25.75 52C 25.75 66.4975 37.5025 78.25 52 78.25Z"></path>
</g>
</g>
</g>
<g id="g-root-sy_5_Subtract_8d0xu9s562q-fill" data-item-order="-616673" transform="translate(453.0, 656.0)"></g>
<g id="g-root-sy_5_Subtract_8d0xu9s562q-stroke" data-item-order="-616673" transform="translate(453.0, 656.0)">
<g id="sy_5_Subtract_8d0xu9s562q-stroke" fill="none" stroke-linecap="round" stroke-linejoin="round" stroke-miterlimit="4" stroke="#484848" stroke-width="2" stroke-opacity="1.0">
<g>
<path d="M 49.375 10L 10 10"></path>
</g>
</g>
</g>
<g id="g-root-sy_5_Subtract-start_1ly0kjm9s562t-fill" data-item-order="-616671" transform="translate(492.375, 653.375)"></g>
<g id="g-root-sy_5_Subtract-start_1ly0kjm9s562t-stroke" data-item-order="-616671" transform="translate(492.375, 653.375)">
<g id="sy_5_Subtract-start_1ly0kjm9s562t-stroke" fill="none" stroke-linecap="round" stroke-linejoin="round" stroke-miterlimit="4" stroke="#484848" stroke-width="2" stroke-opacity="1.0">
<g>
<path d="M 12.625 10C 14.0738 10 15.25 11.1762 15.25 12.625C 15.25 14.0738 14.0738 15.25 12.625 15.25C 11.1762 15.25 10 14.0738 10 12.625C 10 11.1762 11.1762 10 12.625 10Z"></path>
</g>
</g>
</g>
<g id="g-root-sy_5_Subtract_1_146qk1u9s569u-fill" data-item-order="-616667" transform="translate(330.0, 656.0)"></g>
<g id="g-root-sy_5_Subtract_1_146qk1u9s569u-stroke" data-item-order="-616667" transform="translate(330.0, 656.0)">
<g id="sy_5_Subtract_1_146qk1u9s569u-stroke" fill="none" stroke-linecap="round" stroke-linejoin="round" stroke-miterlimit="4" stroke="#484848" stroke-width="2" stroke-opacity="1.0">
<g>
<path d="M 10 10L 49 10"></path>
</g>
</g>
</g>
<g id="g-root-sy_5_Subtract-start_1_dkg0ea9s53be-fill" data-item-order="-616665" transform="translate(324.0, 653.0)"></g>
<g id="g-root-sy_5_Subtract-start_1_dkg0ea9s53be-stroke" data-item-order="-616665" transform="translate(324.0, 653.0)">
<g id="sy_5_Subtract-start_1_dkg0ea9s53be-stroke" fill="none" stroke-linecap="round" stroke-linejoin="round" stroke-miterlimit="4" stroke="#484848" stroke-width="2" stroke-opacity="1.0">
<g>
<path d="M 13 10C 11.3443 10 10 11.3443 10 13C 10 14.6557 11.3443 16 13 16C 14.6557 16 16 14.6557 16 13C 16 11.3443 14.6557 10 13 10Z"></path>
</g>
</g>
</g>
<g id="g-root-tx_rawdatae_8zi0y9s543y-fill" data-item-order="0" transform="translate(567.0, 128.0)">
<g id="tx_rawdatae_8zi0y9s543y-fill-merged" stroke="none" fill="#4e88e7" fill-opacity="1.0">
<g>
<text transform="translate(10.0, 10.0)" style="font-size:20px; font-family:'Roboto', napkin-fallback, sans-serif; white-space:pre;">
<tspan x="2" y="24" dominant-baseline="ideographic">Raw Data Entry</tspan>
</text>
</g>
</g>
</g>
<g id="g-root-tx_rawdatae_8zi0y9s543y-stroke" data-item-order="0" transform="translate(567.0, 128.0)"></g>
<g id="g-root-tx_pdfswebp_1lyn1mq9s543n-fill" data-item-order="0" transform="translate(567.0, 164.0)">
<g id="tx_pdfswebp_1lyn1mq9s543n-fill-merged" stroke="none" fill="#484848" fill-opacity="1.0">
<g>
<text transform="translate(10.0, 19.0)" style="font-size:15px; font-family:'Roboto', napkin-fallback, sans-serif; white-space:pre;">
<tspan x="2" y="9" dominant-baseline="ideographic">PDFs, web pages, and databases </tspan>
<tspan x="2" y="27" dominant-baseline="ideographic">are ingested into the system</tspan>
</text>
</g>
</g>
</g>
<g id="g-root-tx_pdfswebp_1lyn1mq9s543n-stroke" data-item-order="0" transform="translate(567.0, 164.0)"></g>
<g id="g-root-ic_page_8zi0y9s54i0-fill" data-item-order="0" transform="translate(507.0, 128.0)"></g>
<g id="g-root-ic_page_8zi0y9s54i0-stroke" data-item-order="0" transform="translate(507.0, 128.0)">
<g id="ic_page_8zi0y9s54i0-stroke" fill="none" stroke-linecap="round" stroke-linejoin="round" stroke-miterlimit="4" stroke="#484848" stroke-width="2" stroke-opacity="1.0">
<g>
<path d="M 21.84506 49.493401C 22.36972 49.493401 22.793259 49.069801 22.793259 48.5452L 22.793259 38.0392C 22.793259 37.7864 22.69212 37.539803 22.508801 37.362801L 20.612419 35.5424C 20.435421 35.365402 20.1952 35.270599 19.948681 35.270599L 12.784121 35.270599C 12.25946 35.270599 11.835938 35.694 11.835938 36.2188L 11.835938 48.5452C 11.835938 49.069801 12.25946 49.493401 12.784121 49.493401L 21.84506 49.493401ZM 38.583401 49.493401C 39.108002 49.493401 39.531601 49.069801 39.531601 48.5452L 39.531601 38.0392C 39.531601 37.7864 39.430401 37.539803 39.247002 37.362801L 37.350601 35.5424C 37.173599 35.365402 36.933399 35.270599 36.687 35.270599L 29.522421 35.270599C 28.99774 35.270599 28.574221 35.694 28.574221 36.2188L 28.574221 48.5452C 28.574221 49.069801 28.99774 49.493401 29.522421 49.493401L 38.583401 49.493401ZM 55.216202 49.493401C 55.740799 49.493401 56.164398 49.069801 56.164398 48.5452L 56.164398 38.0392C 56.164398 37.7864 56.063202 37.539803 55.879799 37.362801L 53.983601 35.5424C 53.806599 35.365402 53.566399 35.270599 53.319801 35.270599L 46.155201 35.270599C 45.6306 35.270599 45.207001 35.694 45.207001 36.2188L 45.207001 48.5452C 45.207001 49.069801 45.6306 49.493401 46.155201 49.493401L 55.216202 49.493401ZM 10 10M 42.042999 26.889641L 48.5672 27.61422L 49.291599 21.0898M 19.949219 26.89006C 22.201439 23.508881 27.27454 18.50684 33.753799 18.50684C 40.233002 18.50684 45.024399 22.59314 47.6306 26.89006"></path>
</g>
</g>
</g>
<g id="g-root-tx_1_1q6cdmq9s9bet-fill" data-item-order="0" transform="translate(400.578125, 140.0)">
<g id="tx_1_1q6cdmq9s9bet-fill-merged" stroke="none" fill="#484848" fill-opacity="1.0">
<g>
<text transform="translate(18.421875, 10.0)" style="font-size:30px; font-family:'Roboto', napkin-fallback, sans-serif; white-space:pre;">
<tspan x="-6.42" y="36" dominant-baseline="ideographic">1</tspan>
</text>
</g>
</g>
</g>
<g id="g-root-tx_1_1q6cdmq9s9bet-stroke" data-item-order="0" transform="translate(400.578125, 140.0)"></g>
<g id="g-root-tx_vectorco_hs5cea9s9bt4-fill" data-item-order="0" transform="translate(88.1875, 248.0)">
<g id="tx_vectorco_hs5cea9s9bt4-fill-merged" stroke="none" fill="#1eabda" fill-opacity="1.0">
<g>
<text transform="translate(172.8125, 10.0)" style="font-size:20px; font-family:'Roboto', napkin-fallback, sans-serif; white-space:pre;">
<tspan x="-160.81" y="24" dominant-baseline="ideographic">Vector Conversion</tspan>
</text>
</g>
</g>
</g>
<g id="g-root-tx_vectorco_hs5cea9s9bt4-stroke" data-item-order="0" transform="translate(88.1875, 248.0)"></g>
<g id="g-root-tx_document_4gou0y9s9c0a-fill" data-item-order="0" transform="translate(33.203125, 284.0)">
<g id="tx_document_4gou0y9s9c0a-fill-merged" stroke="none" fill="#484848" fill-opacity="1.0">
<g>
<text transform="translate(227.796875, 28.0)" style="font-size:15px; font-family:'Roboto', napkin-fallback, sans-serif; white-space:pre;">
<tspan x="-215.8" y="0" dominant-baseline="ideographic">Documents are split into chunks </tspan>
<tspan x="-170.98" y="18" dominant-baseline="ideographic">and converted into vector </tspan>
<tspan x="-80.45" y="36" dominant-baseline="ideographic">embeddings</tspan>
</text>
</g>
</g>
</g>
<g id="g-root-tx_document_4gou0y9s9c0a-stroke" data-item-order="0" transform="translate(33.203125, 284.0)"></g>
<g id="g-root-ic_down_v3lurm9s9c7i-fill" data-item-order="0" transform="translate(267.0, 248.0)"></g>
<g id="g-root-ic_down_v3lurm9s9c7i-stroke" data-item-order="0" transform="translate(267.0, 248.0)">
<g id="ic_down_v3lurm9s9c7i-stroke" fill="none" stroke-linecap="round" stroke-linejoin="round" stroke-miterlimit="4" stroke="#484848" stroke-width="2" stroke-opacity="1.0">
<g>
<path d="M 32.650002 34.017998C 32.648895 35.513908 31.435911 36.725998 29.940001 36.725998L 13.691999 36.725998C 12.196413 36.725998 10.984 35.513588 10.984 34.017998L 10.984 13.708C 10.984 12.212413 12.196413 11 13.691999 11L 24.306 11C 25.024942 11.001818 25.713608 11.289661 26.220001 11.8L 31.856001 17.434C 32.366642 17.941008 32.654495 18.630409 32.655998 19.35ZM 29.483999 50.130001L 20.484001 50.130001C 19.379431 50.130001 18.484001 49.23457 18.484001 48.130001L 18.484001 42.869999M 32.650002 29.955999L 27.677999 24.276001C 27.337946 23.884293 26.845438 23.658327 26.326721 23.656029C 25.808004 23.653728 25.313511 23.87532 24.970001 24.264L 19.108 30.864L 15.858 28.264C 15.141512 27.689169 14.107126 27.746059 13.458 28.396L 10.984 30.858M 17.734001 18C 18.83857 18 19.734001 18.895432 19.734001 20C 19.734001 21.104568 18.83857 22 17.734001 22C 16.629431 22 15.734 21.104568 15.734 20C 15.734 18.895432 16.629431 18 17.734001 18M 25.484001 54.130001L 29.483999 50.130001L 25.484001 46.130001M 48.015999 39.720001C 52.986 39.720001 57.015999 38.43 57.015999 36.84C 57.015999 35.25 52.986 33.959999 48.015999 33.959999C 43.046001 33.959999 39.015999 35.25 39.015999 36.84C 39.015999 38.43 43.043999 39.720001 48.015999 39.720001ZM 39.015999 45.48L 39.015999 36.84M 57.015999 36.84L 57.015999 45.48M 57.015999 45.48L 57.015999 54.119999C 57.015999 55.720001 52.986 57 48.015999 57C 43.046001 57 39.015999 55.709999 39.015999 54.119999L 39.015999 45.48M 57.015999 42.48C 57.015999 44.080002 52.986 45.360001 48.015999 45.360001C 43.046001 45.360001 39.015999 44.07 39.015999 42.48M 57.015999 48.48C 57.015999 50.080002 52.986 51.360001 48.015999 51.360001C 43.046001 51.360001 39.015999 50.07 39.015999 48.48"></path>
</g>
</g>
</g>
<g id="g-root-tx_chunking_18i6qki9s9dzi-fill" data-item-order="0" transform="translate(507.0, 266.0)">
<g id="tx_chunking_18i6qki9s9dzi-fill-merged" stroke="none" fill="#484848" fill-opacity="1.0">
<g>
<text transform="translate(10.0, 10.0)" style="font-size:15px; font-family:'Roboto', napkin-fallback, sans-serif; white-space:pre;">
<tspan x="2" y="18" dominant-baseline="ideographic">Chunking &amp; Embedding</tspan>
</text>
</g>
</g>
</g>
<g id="g-root-tx_chunking_18i6qki9s9dzi-stroke" data-item-order="0" transform="translate(507.0, 266.0)"></g>
<g id="g-root-tx_2_4kfojm9s9b7q-fill" data-item-order="0" transform="translate(400.578125, 260.0)">
<g id="tx_2_4kfojm9s9b7q-fill-merged" stroke="none" fill="#484848" fill-opacity="1.0">
<g>
<text transform="translate(18.421875, 10.0)" style="font-size:30px; font-family:'Roboto', napkin-fallback, sans-serif; white-space:pre;">
<tspan x="-6.42" y="36" dominant-baseline="ideographic">2</tspan>
</text>
</g>
</g>
</g>
<g id="g-root-tx_2_4kfojm9s9b7q-stroke" data-item-order="0" transform="translate(400.578125, 260.0)"></g>
<g id="g-root-tx_vectorst_9096o29s9beo-fill" data-item-order="0" transform="translate(228.71875, 404.0)">
<g id="tx_vectorst_9096o29s9beo-fill-merged" stroke="none" fill="#484848" fill-opacity="1.0">
<g>
<text transform="translate(92.28125, 10.0)" style="font-size:15px; font-family:'Roboto', napkin-fallback, sans-serif; white-space:pre;">
<tspan x="-80.28" y="18" dominant-baseline="ideographic">Vector Store</tspan>
</text>
</g>
</g>
</g>
<g id="g-root-tx_vectorst_9096o29s9beo-stroke" data-item-order="0" transform="translate(228.71875, 404.0)"></g>
<g id="g-root-tx_database_4m6f69s9blv-fill" data-item-order="0" transform="translate(567.0, 386.0)">
<g id="tx_database_4m6f69s9blv-fill-merged" stroke="none" fill="#3cc583" fill-opacity="1.0">
<g>
<text transform="translate(10.0, 10.0)" style="font-size:20px; font-family:'Roboto', napkin-fallback, sans-serif; white-space:pre;">
<tspan x="2" y="24" dominant-baseline="ideographic">Database Storage</tspan>
</text>
</g>
</g>
</g>
<g id="g-root-tx_database_4m6f69s9blv-stroke" data-item-order="0" transform="translate(567.0, 386.0)"></g>
<g id="g-root-tx_embeddin_1qa385e9s9bls-fill" data-item-order="0" transform="translate(567.0, 422.0)">
<g id="tx_embeddin_1qa385e9s9bls-fill-merged" stroke="none" fill="#484848" fill-opacity="1.0">
<g>
<text transform="translate(10.0, 19.0)" style="font-size:15px; font-family:'Roboto', napkin-fallback, sans-serif; white-space:pre;">
<tspan x="2" y="9" dominant-baseline="ideographic">Embeddings are stored in a vector </tspan>
<tspan x="2" y="27" dominant-baseline="ideographic">database for efficient retrieval</tspan>
</text>
</g>
</g>
</g>
<g id="g-root-tx_embeddin_1qa385e9s9bls-stroke" data-item-order="0" transform="translate(567.0, 422.0)"></g>
<g id="g-root-ic_1_qrj75u9s9c03-fill" data-item-order="0" transform="translate(507.0, 386.0)"></g>
<g id="g-root-ic_1_qrj75u9s9c03-stroke" data-item-order="0" transform="translate(507.0, 386.0)">
<g id="ic_1_qrj75u9s9c03-stroke" fill="none" stroke-linecap="round" stroke-linejoin="round" stroke-miterlimit="4" stroke="#484848" stroke-width="2" stroke-opacity="1.0">
<g>
<path d="M 18.006001 17.001999C 18.006001 20.315708 25.617159 23.001999 35.006001 23.001999C 44.39484 23.001999 52.006001 20.315708 52.006001 17.002001C 52.006001 13.688292 44.39484 11.002 35.006001 11.002C 25.617159 11.002 18.006001 13.688292 18.006001 17.002001ZM 52 25C 52 28.313999 44.388 31 35 31C 25.612 31 18 28.316 18 25M 52 33C 52 36.313999 44.388 39 35 39C 25.612 39 18 36.316002 18 33M 52 17L 52 41C 52 44.313999 44.388 47 35 47C 25.612 47 18 44.316002 18 41L 18 17M 22 57.001999L 46 57.001999M 34.006001 47.001999L 34.006001 57.001999M 12.5 56.001999L 12.5 56.001999M 12.5 56C 12.223858 56 12 56.223858 12 56.5C 12 56.776142 12.223858 57 12.5 57C 12.776142 57 13 56.776142 13 56.5C 13 56.223858 12.776142 56 12.5 56M 17.5 56.001999L 17.5 56.001999M 17.5 56C 17.223858 56 17 56.223858 17 56.5C 17 56.776142 17.223858 57 17.5 57C 17.776142 57 18 56.776142 18 56.5C 18 56.223858 17.776142 56 17.5 56M 50.5 56.001999L 50.5 56.001999M 50.5 56C 50.223858 56 50 56.223858 50 56.5C 50 56.776142 50.223858 57 50.5 57C 50.776142 57 51 56.776142 51 56.5C 51 56.223858 50.776142 56 50.5 56M 55.5 56.001999L 55.5 56.001999M 55.5 56C 55.223858 56 55 56.223858 55 56.5C 55 56.776142 55.223858 57 55.5 57C 55.776142 57 56 56.776142 56 56.5C 56 56.223858 55.776142 56 55.5 56"></path>
</g>
</g>
</g>
<g id="g-root-tx_3_mb37ya9sc4jv-fill" data-item-order="0" transform="translate(400.578125, 398.0)">
<g id="tx_3_mb37ya9sc4jv-fill-merged" stroke="none" fill="#484848" fill-opacity="1.0">
<g>
<text transform="translate(18.421875, 10.0)" style="font-size:30px; font-family:'Roboto', napkin-fallback, sans-serif; white-space:pre;">
<tspan x="-6.42" y="36" dominant-baseline="ideographic">3</tspan>
</text>
</g>
</g>
</g>
<g id="g-root-tx_3_mb37ya9sc4jv-stroke" data-item-order="0" transform="translate(400.578125, 398.0)"></g>
<g id="g-root-tx_relevant_1q9gr2a9sc4qs-fill" data-item-order="0" transform="translate(26.4375, 506.0)">
<g id="tx_relevant_1q9gr2a9sc4qs-fill-merged" stroke="none" fill="#92bd39" fill-opacity="1.0">
<g>
<text transform="translate(234.5625, 10.0)" style="font-size:20px; font-family:'Roboto', napkin-fallback, sans-serif; white-space:pre;">
<tspan x="-222.56" y="24" dominant-baseline="ideographic">Relevant Chunk Selection</tspan>
</text>
</g>
</g>
</g>
<g id="g-root-tx_relevant_1q9gr2a9sc4qs-stroke" data-item-order="0" transform="translate(26.4375, 506.0)"></g>
<g id="g-root-tx_userquer_1upa96q9sc4xs-fill" data-item-order="0" transform="translate(20.59375, 542.0)">
<g id="tx_userquer_1upa96q9sc4xs-fill-merged" stroke="none" fill="#484848" fill-opacity="1.0">
<g>
<text transform="translate(240.40625, 19.0)" style="font-size:15px; font-family:'Roboto', napkin-fallback, sans-serif; white-space:pre;">
<tspan x="-228.41" y="9" dominant-baseline="ideographic">User query is embedded and top-k </tspan>
<tspan x="-181.2" y="27" dominant-baseline="ideographic">similar chunks are retrieved</tspan>
</text>
</g>
</g>
</g>
<g id="g-root-tx_userquer_1upa96q9sc4xs-stroke" data-item-order="0" transform="translate(20.59375, 542.0)"></g>
<g id="g-root-ic_2_qqwq2q9sc5c1-fill" data-item-order="0" transform="translate(267.0, 506.0)"></g>
<g id="g-root-ic_2_qqwq2q9sc5c1-stroke" data-item-order="0" transform="translate(267.0, 506.0)">
<g id="ic_2_qqwq2q9sc5c1-stroke" fill="none" stroke-linecap="round" stroke-linejoin="round" stroke-miterlimit="4" stroke="#484848" stroke-width="2" stroke-opacity="1.0">
<g>
<path d="M 34.499802 42.299999C 43.005001 42.299999 49.899799 35.405197 49.899799 26.9C 49.899799 18.3948 43.005001 11.5 34.499802 11.5C 25.994659 11.5 19.099861 18.3948 19.099861 26.9C 19.099861 35.405197 25.994659 42.299999 34.499802 42.299999ZM 10 10M 56.499802 48.900398L 45.299801 37.900398M 15.5 17.5C 13.3 17.5 11.5 19.299999 11.5 21.5L 11.5 52.5C 11.5 54.700001 13.3 56.5 15.5 56.5L 35.5 56.5C 37.700001 56.5 39.5 54.700001 39.5 52.5L 39.5 47.5M 30.5 17.5L 35.5 17.5C 37.700001 17.5 39.5 19.299999 39.5 21.5L 39.5 34.5M 25.099861 29.5L 32.0998 29.5M 26.099859 23.5L 32.0998 23.5M 30.0998 35.5L 32.0998 35.5"></path>
</g>
</g>
</g>
<g id="g-root-tx_retrieva_1hi72f69sc4cp-fill" data-item-order="0" transform="translate(507.0, 524.0)">
<g id="tx_retrieva_1hi72f69sc4cp-fill-merged" stroke="none" fill="#484848" fill-opacity="1.0">
<g>
<text transform="translate(10.0, 10.0)" style="font-size:15px; font-family:'Roboto', napkin-fallback, sans-serif; white-space:pre;">
<tspan x="2" y="18" dominant-baseline="ideographic">Retrieval</tspan>
</text>
</g>
</g>
</g>
<g id="g-root-tx_retrieva_1hi72f69sc4cp-stroke" data-item-order="0" transform="translate(507.0, 524.0)"></g>
<g id="g-root-tx_document_4ot05e9s53wr-fill" data-item-order="0" transform="translate(176.609375, 146.0)">
<g id="tx_document_4ot05e9s53wr-fill-merged" stroke="none" fill="#484848" fill-opacity="1.0">
<g>
<text transform="translate(144.390625, 10.0)" style="font-size:15px; font-family:'Roboto', napkin-fallback, sans-serif; white-space:pre;">
<tspan x="-132.39" y="18" dominant-baseline="ideographic">Document Ingestion</tspan>
</text>
</g>
</g>
</g>
<g id="g-root-tx_document_4ot05e9s53wr-stroke" data-item-order="0" transform="translate(176.609375, 146.0)"></g>
<g id="g-root-tx_generati_1hi72f69sc4xx-fill" data-item-order="0" transform="translate(238.265625, 644.0)">
<g id="tx_generati_1hi72f69sc4xx-fill-merged" stroke="none" fill="#484848" fill-opacity="1.0">
<g>
<text transform="translate(82.734375, 10.0)" style="font-size:15px; font-family:'Roboto', napkin-fallback, sans-serif; white-space:pre;">
<tspan x="-70.73" y="18" dominant-baseline="ideographic">Generation</tspan>
</text>
</g>
</g>
</g>
<g id="g-root-tx_generati_1hi72f69sc4xx-stroke" data-item-order="0" transform="translate(238.265625, 644.0)"></g>
<g id="g-root-tx_grounded_18mk26a9sc559-fill" data-item-order="0" transform="translate(567.0, 626.0)">
<g id="tx_grounded_18mk26a9sc559-fill-merged" stroke="none" fill="#e0cb15" fill-opacity="1.0">
<g>
<text transform="translate(10.0, 10.0)" style="font-size:20px; font-family:'Roboto', napkin-fallback, sans-serif; white-space:pre;">
<tspan x="2" y="24" dominant-baseline="ideographic">Grounded Answer</tspan>
</text>
</g>
</g>
</g>
<g id="g-root-tx_grounded_18mk26a9sc559-stroke" data-item-order="0" transform="translate(567.0, 626.0)"></g>
<g id="g-root-tx_retrieve_vb3jsy9sc5c3-fill" data-item-order="0" transform="translate(567.0, 662.0)">
<g id="tx_retrieve_vb3jsy9sc5c3-fill-merged" stroke="none" fill="#484848" fill-opacity="1.0">
<g>
<text transform="translate(10.0, 28.0)" style="font-size:15px; font-family:'Roboto', napkin-fallback, sans-serif; white-space:pre;">
<tspan x="2" y="0" dominant-baseline="ideographic">Retrieved chunks and query are </tspan>
<tspan x="2" y="18" dominant-baseline="ideographic">sent to LLM for a context-aware </tspan>
<tspan x="2" y="36" dominant-baseline="ideographic">response</tspan>
</text>
</g>
</g>
</g>
<g id="g-root-tx_retrieve_vb3jsy9sc5c3-stroke" data-item-order="0" transform="translate(567.0, 662.0)"></g>
<g id="g-root-ic_4_8d0xu9sc5qj-fill" data-item-order="0" transform="translate(507.0, 626.0)"></g>
<g id="g-root-ic_4_8d0xu9sc5qj-stroke" data-item-order="0" transform="translate(507.0, 626.0)">
<g id="ic_4_8d0xu9sc5qj-stroke" fill="none" stroke-linecap="round" stroke-linejoin="round" stroke-miterlimit="4" stroke="#484848" stroke-width="2" stroke-opacity="1.0">
<g>
<path d="M 30.5 32.334L 38.524002 32.334L 38.323997 39L 46.124001 32.334L 54.324001 32.334C 55.033146 32.336662 55.714127 32.056679 56.216324 31.555984C 56.718517 31.055292 57.000538 30.375149 57 29.666L 57 13.666C 57 12.193609 55.806393 11 54.334 11L 30.334 11C 28.860828 10.998895 27.666 12.192827 27.666 13.666L 27.666 24M 38 27L 43 16L 48 27M 39.108002 24.562L 46.891998 24.562M 33 55C 33 56.104568 32.104568 57 31 57L 13 57C 11.895431 57 11 56.104568 11 55L 11 48C 11 41.92487 15.924868 37 22 37C 28.075132 37 33 41.92487 33 48ZM 11 51L 33 51M 17 45.5C 17 45.776142 17.223858 46 17.5 46C 17.776142 46 18 45.776142 18 45.5C 18 45.223858 17.776142 45 17.5 45C 17.223858 45 17 45.223858 17 45.5M 26 45.5C 26 45.776142 26.223858 46 26.5 46C 26.776142 46 27 45.776142 27 45.5C 27 45.223858 26.776142 45 26.5 45C 26.223858 45 26 45.223858 26 45.5M 22 37L 22 33M 19 30C 19 31.656855 20.343147 33 22 33C 23.656855 33 25 31.656855 25 30C 25 28.343147 23.656855 27 22 27C 20.343147 27 19 28.343147 19 30"></path>
</g>
</g>
</g>
<g id="g-root-tx_5_1q8u9z69sexad-fill" data-item-order="0" transform="translate(400.578125, 638.0)">
<g id="tx_5_1q8u9z69sexad-fill-merged" stroke="none" fill="#484848" fill-opacity="1.0">
<g>
<text transform="translate(18.421875, 10.0)" style="font-size:30px; font-family:'Roboto', napkin-fallback, sans-serif; white-space:pre;">
<tspan x="-6.42" y="36" dominant-baseline="ideographic">5</tspan>
</text>
</g>
</g>
</g>
<g id="g-root-tx_5_1q8u9z69sexad-stroke" data-item-order="0" transform="translate(400.578125, 638.0)"></g>
<g id="g-root-tx_theragpi_qvwirm9s53ij-fill" data-item-order="0" transform="translate(165.0390625, 38.0)">
<g id="tx_theragpi_qvwirm9s53ij-fill-merged" stroke="none" fill="#484848" fill-opacity="1.0">
<g>
<text transform="translate(265.9609375, 10.0)" style="font-size:25px; font-family:'Roboto', napkin-fallback, sans-serif; font-weight:bold; white-space:pre;">
<tspan x="-253.96" y="30" dominant-baseline="ideographic">The RAG Pipeline: Enhancing LLM Responses</tspan>
</text>
</g>
</g>
</g>
<g id="g-root-tx_theragpi_qvwirm9s53ij-stroke" data-item-order="0" transform="translate(165.0390625, 38.0)"></g>
<g id="g-root-tx_4_1d2dkaq9sc4r0-fill" data-item-order="0" transform="translate(400.578125, 518.0)">
<g id="tx_4_1d2dkaq9sc4r0-fill-merged" stroke="none" fill="#484848" fill-opacity="1.0">
<g>
<text transform="translate(18.421875, 10.0)" style="font-size:30px; font-family:'Roboto', napkin-fallback, sans-serif; white-space:pre;">
<tspan x="-6.42" y="36" dominant-baseline="ideographic">4</tspan>
</text>
</g>
</g>
</g>
<g id="g-root-tx_4_1d2dkaq9sc4r0-stroke" data-item-order="0" transform="translate(400.578125, 518.0)"></g>
</g>
</g>
<path id="w1lr5cle9sge89" d="M65.283 12.757a.35.35 0 0 0 .584.157l5.203-5.141-6.183 3.523.396 1.461zm-2.216-11.7a.35.35 0 0 0-.522.305v3.111l3.276-1.868-2.754-1.548zm3.728 2.105l-4.25 2.421v2.445l6.391-3.644-2.141-1.222zm4.708 3.303a.35.35 0 0 0 0-.609l-1.592-.9-7.365 4.199v1.782a.35.35 0 0 0 .523.305l8.435-4.777z M44.542 2.513c0-.433.355-.783.792-.783s.792.35.792.783-.355.783-.792.783-.792-.35-.792-.783zm59.171 0c0-.433.355-.783.792-.783s.792.35.792.783-.355.783-.792.783-.792-.35-.792-.783zm-85.951 7.636h-1.27v-.487c-.276.201-.864.609-1.881.609-1.202 0-2.274-.794-2.137-2.078.118-1.106 1.153-1.584 1.848-1.727l2.17-.345c0-.539-.29-.956-1.064-1.006s-1.21.305-1.571 1.017l-1.124-.605c1.218-2.631 5.029-1.764 5.029.414v4.207zm-1.27-2.86c.006.396-.062 1.112-.819 1.59-.587.37-1.841.299-1.903-.395-.049-.555.461-.791.906-.898l1.816-.297zm72.662 2.86h-1.27v-.487c-.276.201-.864.609-1.881.609-1.202 0-2.274-.794-2.137-2.078.118-1.106 1.153-1.584 1.848-1.727l2.17-.345c0-.539-.29-.956-1.064-1.006s-1.21.305-1.571 1.017l-1.124-.605c1.218-2.631 5.029-1.764 5.029.414v4.207zm-1.27-2.86c.006.396-.062 1.112-.82 1.59-.587.37-1.841.299-1.903-.395-.049-.555.461-.791.906-.898l1.816-.297zM99.096 10.149H97.85v-8.45h1.246v4.895l2.68-2.559h1.738l-2.633 2.535 2.715 3.578h-1.556l-2.077-2.707-.867.844v1.863zm6.053-6.114h-1.255v6.113h1.255V4.035zm-59.2 0h-1.255v6.113h1.255V4.035zm5.584 6.113V1.697h1.255v2.695c.361-.346 1-.485 1.47-.485 1.452 0 2.477 1.082 2.457 2.448v3.792h-1.27v-3.68c0-.408-.214-1.339-1.315-1.339-.968 0-1.342.756-1.342 1.339v3.681h-1.255zm-4.76-4.894V4.039h.621a.45.45 0 0 0 .45-.45v-.855h1.251v1.305h1.309v1.215h-1.309v3.109c0 .293.105.664.648.664.365 0 .531-.035.736-.07v1.137s-.361.113-.857.113c-1.398 0-1.777-1.051-1.777-1.788V5.254h-1.071zM36.528 4.039h-1.394l2.191 6.106h1.125l1.234-3.918 1.238 3.918h1.129l2.188-6.106h-1.383l-1.359 3.93-1.256-3.93h-1.124l-1.242 3.957-1.348-3.957zM26.212 7.141c-.02 1.566 1.187 3.129 3.223 3.129 1.566 0 2.383-.918 2.734-1.719L31.172 8c-.315.399-.801 1.094-1.738 1.094-1.145 0-1.825-.781-1.891-1.52h4.625c.074-.284.148-.995-.03-1.559-.336-1.064-1.221-2.102-2.839-2.102s-3.088 1.152-3.088 3.227zm1.363-.75h3.348c-.055-.43-.566-1.301-1.623-1.301a1.79 1.79 0 0 0-1.725 1.301zm-8.758.75c.038 1.758 1.277 3.133 3.145 3.133 1.074 0 1.723-.477 1.961-.672v.547h1.242V1.703h-1.258v2.888c-.414-.36-1.062-.68-1.93-.68-1.91 0-3.198 1.473-3.16 3.23zm1.309-.08c0 1.119.723 1.978 1.836 1.978a1.88 1.88 0 0 0 1.94-1.904c0-1.371-1.011-1.99-1.972-1.99s-1.805.798-1.805 1.916zm76.683-.028C96.771 5.275 95.532 3.9 93.664 3.9c-1.074 0-1.723.477-1.961.672v-.547h-1.242v8.22h1.258V9.583c.414.36 1.063.68 1.93.68 1.91 0 3.198-1.473 3.16-3.23zm-1.309.08c0-1.119-.723-1.978-1.836-1.978a1.88 1.88 0 0 0-1.94 1.904c0 1.371 1.011 1.99 1.972 1.99S95.5 8.231 95.5 7.113zM106.441 10.173V4.036h1.254v.382c.361-.346 1-.485 1.47-.485 1.452 0 2.477 1.082 2.457 2.448v3.792h-1.27V6.492c0-.408-.214-1.339-1.315-1.339-.969 0-1.342.756-1.342 1.339v3.681h-1.254zm-30.383-.021V1.824h1.084l4.215 5.777V1.824h1.32v8.328h-1.094l-4.207-5.796v5.796h-1.319zM5.24 10.149H4V2.377h1.014l2.664 3.597 2.654-3.592h1.03v7.766h-1.256V4.762L7.678 8.068 5.24 4.742v5.407z" transform="translate(20.0, 740.0)" fill="#80808088" stroke="none"></path>
</svg>